<?xml version="1.0" standalone="no"?>
<!DOCTYPE svg PUBLIC "-//W3C//DTD SVG 20010904//EN"
 "http://www.w3.org/TR/2001/REC-SVG-20010904/DTD/svg10.dtd">
<svg version="1.0" xmlns="http://www.w3.org/2000/svg"
 width="150.000000pt" height="101.000000pt" viewBox="0 0 150.000000 101.000000"
 preserveAspectRatio="xMidYMid meet">
<metadata>
Created by potrace 1.16, written by Peter Selinger 2001-2019
</metadata>
<g transform="translate(0.000000,101.000000) scale(0.100000,-0.100000)"
fill="#000000" stroke="none">
<path d="M376 988 c-13 -18 -16 -54 -16 -180 l0 -158 -158 0 c-111 0 -163 -4
-175 -12 -14 -11 -17 -33 -18 -131 -1 -80 3 -122 11 -132 10 -12 44 -15 176
-15 l164 0 0 -163 c0 -205 -6 -197 141 -197 155 0 149 -7 149 196 l0 164 164
0 c135 0 166 3 176 15 13 16 18 171 5 183 -8 9 -127 -23 -216 -58 -94 -37
-153 -39 -199 -5 -76 56 -87 122 -50 296 20 94 25 174 14 203 -5 13 -22 16
-80 16 -64 0 -75 -3 -88 -22z"/>
<path d="M980 885 c0 -11 141 -81 208 -102 63 -20 90 -24 147 -20 39 3 77 8
86 12 9 3 26 -3 40 -14 l24 -19 -20 -29 c-27 -36 -133 -89 -212 -105 -50 -9
-81 -9 -152 1 -110 15 -173 6 -320 -51 -118 -44 -152 -45 -192 -2 -21 22 -24
35 -24 97 0 40 3 95 8 122 5 37 2 30 -13 -25 -24 -93 -25 -130 -4 -174 38 -78
104 -83 274 -20 98 36 111 38 195 35 201 -8 229 -6 302 17 81 25 153 75 167
115 9 23 6 31 -17 54 -26 27 -28 27 -85 15 -110 -23 -190 -9 -329 58 -46 21
-83 37 -83 35z"/>
</g>
</svg>
